<svg width="300" height="300" viewBox="0 0 300 300" version="1.1" xmlns="http://www.w3.org/2000/svg" xmlns:xlink="http://www.w3.org/1999/xlink">
  <g transform="translate(-8 -33)" fill="none"><path d="M.2.8h300v300h-300z"/><g id="Group" stroke="#999" stroke-width="2"><path d="M149.3 110.8c-6.2 0-22.4 8.9-22.4 10.8h44.800000000000004c0-1.9-16.2-10.8-22.4-10.8zM148.9 110.8v-5.1c1.9-1.9 4.2-2 4.2-4.3 0-2.4-2-4.3-4.3-4.3s-4.3 2-4.3 4.3" id="Shape"/></g><circle id="Oval" stroke="#999" stroke-width="2" fill="#fff" cx="243.6" cy="42.1" r="2.8"/><circle id="Oval" stroke="#F9BA06" stroke-width="2" fill="#fff" cx="267.9" cy="246.3" r="2.8"/><circle id="Oval" stroke="#0AABEA" stroke-width="2" fill="#fff" cx="22.7" cy="273.4" r="2.8"/><g id="Group"><path d="M284.2 150.8l6.8 6.8" id="Shape" stroke="#0AABEA"/><path d="M284.2 157.6l6.8-6.8" id="Shape" stroke="#999"/></g><g id="Group"><path d="M8.9 118.8l6.8 6.7" id="Shape" stroke="#F9BA06"/><path d="M8.9 125.5l6.8-6.7" id="Shape" stroke="#35D88D"/></g><path d="M149.1 56h1.9000000000000001c21.7.4 40.3 6 56.7 11 13.2 4.1 24.7 7.5 35.9 7.9l-3.4 203.1h-180.6l-3.4-203.1c11.2-.4 22.6-3.9 35.9-7.9 16.4-4.9 35-10.6 56.7-11h.3zm1.9-2h-2.2c-40 .7-69.1 18.9-94.5 18.9l3.3 207.1h184.6l3.4-207.1c-25.6 0-54.6-18.2-94.6-18.9z" id="Shape" fill="#999"/><g id="Group" stroke="#999" stroke-width="2"><path d="M67 280v15.9M232.8 280v15.9" id="Shape"/></g><path d="M58.2 231.3h183.9M150.1 273.6v-36.2M28.7 295.9h245.2" id="Shape" stroke="#999" stroke-width="2"/><circle id="Oval" stroke="#999" stroke-width="2" fill="#fff" cx="196.8" cy="255.5" r="3.5"/><circle stroke="#999" stroke-width="2" fill="#fff" cx="104" cy="255.5" r="3.5"/><path d="M54.9 100h188.7" id="Shape" stroke="#999" stroke-width="2"/><path id="Shape" stroke="#35D88D" stroke-width="2" d="M15 218.7l5.9-6 5.5 5.4 5.4-5.4 5.5 5.5 5.6-5.5"/><path id="Shape" stroke="#F9BA06" stroke-width="2" d="M75.9 40.5l5.9-6 5.5 5.4 5.4-5.4 5.5 5.5 5.6-5.5"/><g id="Group"><path d="M167.1 117.6c-.2-2.3-3-3.5-4.6-1.9-.3.3-.5.7-.5 1.1 0 12.2-5.1 19.2-12.8 19.2-7.7 0-12.8-7-12.8-19.2 0-.4-.2-.8-.5-1.1-1.6-1.6-4.4-.4-4.6 1.9-.5 7.1-2.6 23-10 31.7v40.3h55.8v-40.3c-7.3-8.7-9.4-24.6-10-31.7z" opacity=".1" id="Shape" fill="#000"/><path d="M167.1 114.6c-.2-2.3-3-3.5-4.6-1.9-.3.3-.5.7-.5 1.1 0 12.2-5.1 19.2-12.8 19.2-7.7 0-12.8-7-12.8-19.2 0-.4-.2-.8-.5-1.1-1.6-1.6-4.4-.4-4.6 1.9-.5 7.1-2.6 23-10 31.7v40.3h55.8v-40.3c-7.3-8.7-9.4-24.6-10-31.7z" id="Shape" fill="#FB7567"/></g><g fill="#fff"><path d="M130.4 160.1v-2l6.5-8.7c.2-.2.4-.4.7-.4h1.9c.2 0 .4.2.4.4v8.9h2.1v2.6h-2v3.6h-3v-3.5h-5.7c-.5 0-.9-.4-.9-.9zm6.5-7.1l-4 5.4h4.1l-.1-5.4zM143.8 152.9c.3-1 .7-1.9 1.2-2.5.5-.6 1.1-1.1 1.8-1.3.7-.3 1.4-.4 2.2-.4.8 0 1.5.1 2.2.4.7.3 1.3.7 1.8 1.3.5.6.9 1.4 1.2 2.5.3 1 .5 2.3.5 3.8 0 1.6-.2 2.9-.5 3.9s-.7 1.9-1.2 2.5c-.5.6-1.1 1.1-1.8 1.3-.7.3-1.4.4-2.2.4-.8 0-1.5-.1-2.2-.4-.7-.3-1.3-.7-1.8-1.3-.5-.6-.9-1.5-1.2-2.5-.3-1-.5-2.3-.5-3.9 0-1.5.2-2.8.5-3.8zm2.7 5.4c0 .6.1 1.2.3 1.8.2.6.4 1.1.7 1.5.3.4.8.6 1.5.6s1.2-.2 1.5-.6c.3-.4.6-.9.8-1.5.2-.6.2-1.2.3-1.8.1-.6 0-1.2 0-1.6v-1c0-.4 0-.8-.1-1.2l-.2-1.2c-.1-.4-.2-.7-.4-1.1-.2-.3-.4-.6-.7-.8-.3-.2-.7-.3-1.1-.3-.4 0-.8.1-1.1.3-.3.2-.5.4-.7.8-.2.3-.3.7-.4 1.1-.1.4-.2.8-.2 1.2l-.1 1.2v1c-.1.5-.1 1-.1 1.6zM156 160.1v-2l6.5-8.7c.2-.2.4-.4.7-.4h1.9c.2 0 .4.2.4.4v8.9h2.1v2.6h-2.1v3.6h-3v-3.5h-5.7c-.4 0-.8-.4-.8-.9zm6.5-7.1l-4 5.4h4.1l-.1-5.4z"/></g></g>
</svg>
